<svg xmlns="http://www.w3.org/2000/svg" viewBox="0 0 128 128" role="img" aria-labelledby="title desc">
  <title id="title">The Mark - dark version</title>
  <desc id="desc">Northstar creator compass in navy and gold for light backgrounds.</desc>
  <defs>
    <radialGradient id="sparkGlowDark" cx="50%" cy="50%" r="50%">
      <stop offset="0%" stop-color="#FFF3B0" stop-opacity="0.9"/>
      <stop offset="48%" stop-color="#D4A72C" stop-opacity="0.24"/>
      <stop offset="100%" stop-color="#D4A72C" stop-opacity="0"/>
    </radialGradient>
  </defs>
  <circle cx="64" cy="64" r="48" fill="none" stroke="#0F1B2D" stroke-width="3" stroke-linecap="round" stroke-dasharray="118 24 118 24" opacity="0.32"/>
  <path d="M64 12 76 56 64 49 52 56Z" fill="#0F1B2D"/>
  <path d="M116 64 78 76 85 64 78 52Z" fill="#10233F" opacity="0.94"/>
  <path d="M64 116 52 78 64 85 76 78Z" fill="#10233F" opacity="0.86"/>
  <path d="M12 64 50 52 43 64 50 76Z" fill="#10233F" opacity="0.94"/>
  <circle cx="64" cy="64" r="24" fill="url(#sparkGlowDark)"/>
  <path d="M64 44 69.5 58.5 84 64 69.5 69.5 64 84 58.5 69.5 44 64 58.5 58.5Z" fill="#D4A72C"/>
  <path d="M64 50 67.6 60.4 78 64 67.6 67.6 64 78 60.4 67.6 50 64 60.4 60.4Z" fill="#FFF3B0"/>
</svg>
