<svg xmlns="http://www.w3.org/2000/svg" viewBox="0 0 560 128" role="img" aria-labelledby="title desc">
  <title id="title">Northstar horizontal logo</title>
  <desc id="desc">The Mark with NORTHSTAR wordmark and motto.</desc>
  <defs>
    <radialGradient id="sparkGlowHorizontal" cx="50%" cy="50%" r="50%">
      <stop offset="0%" stop-color="#FFF3B0" stop-opacity="0.88"/>
      <stop offset="46%" stop-color="#D4A72C" stop-opacity="0.26"/>
      <stop offset="100%" stop-color="#D4A72C" stop-opacity="0"/>
    </radialGradient>
  </defs>
  <g transform="translate(0 0)">
    <circle cx="64" cy="64" r="48" fill="none" stroke="#10233F" stroke-width="3" stroke-linecap="round" stroke-dasharray="118 24 118 24" opacity="0.28"/>
    <path d="M64 12 76 56 64 49 52 56Z" fill="#0F1B2D"/>
    <path d="M116 64 78 76 85 64 78 52Z" fill="#10233F" opacity="0.92"/>
    <path d="M64 116 52 78 64 85 76 78Z" fill="#10233F" opacity="0.82"/>
    <path d="M12 64 50 52 43 64 50 76Z" fill="#10233F" opacity="0.92"/>
    <circle cx="64" cy="64" r="24" fill="url(#sparkGlowHorizontal)"/>
    <path d="M64 44 69.5 58.5 84 64 69.5 69.5 64 84 58.5 69.5 44 64 58.5 58.5Z" fill="#D4A72C"/>
    <path d="M64 50 67.6 60.4 78 64 67.6 67.6 64 78 60.4 67.6 50 64 60.4 60.4Z" fill="#FFF3B0"/>
  </g>
  <text x="152" y="56" fill="#0F1B2D" font-family="Inter, ui-sans-serif, system-ui, -apple-system, BlinkMacSystemFont, 'Segoe UI', sans-serif" font-size="42" font-weight="760" letter-spacing="2">NORTHSTAR</text>
  <text x="154" y="82" fill="#667085" font-family="Inter, ui-sans-serif, system-ui, -apple-system, BlinkMacSystemFont, 'Segoe UI', sans-serif" font-size="17" font-weight="500">Data becomes direction.</text>
  <text x="154" y="105" fill="#667085" font-family="Inter, ui-sans-serif, system-ui, -apple-system, BlinkMacSystemFont, 'Segoe UI', sans-serif" font-size="13" font-weight="450">One place to guide every creator decision.</text>
</svg>
