<svg xmlns="http://www.w3.org/2000/svg" viewBox="0 0 64 64" role="img" aria-labelledby="title desc">
  <title id="title">Northstar favicon</title>
  <desc id="desc">Simplified Northstar mark for favicon use.</desc>
  <rect x="4" y="4" width="56" height="56" rx="14" fill="#FAFAF8"/>
  <path d="M32 6 38 27 32 24 26 27Z" fill="#0F1B2D"/>
  <path d="M58 32 39 38 42 32 39 26Z" fill="#10233F"/>
  <path d="M32 58 26 39 32 42 38 39Z" fill="#10233F" opacity="0.84"/>
  <path d="M6 32 25 26 22 32 25 38Z" fill="#10233F"/>
  <circle cx="32" cy="32" r="11" fill="#D4A72C" opacity="0.28"/>
  <path d="M32 21 35 29 43 32 35 35 32 43 29 35 21 32 29 29Z" fill="#D4A72C"/>
  <path d="M32 26 34 30 38 32 34 34 32 38 30 34 26 32 30 30Z" fill="#FFF3B0"/>
</svg>
